<?xml version="1.0" encoding="UTF-8"?><svg id="a" xmlns="http://www.w3.org/2000/svg" viewBox="0 0 1366 768"><path d="M325.003,309.713s15.385-6.513,14.583,3.918c-1.306,16.977,13.747,22.236,19.154,27.642,5.006,5.006-7.4,16.106-2.177,21.765" fill="none" stroke="#000" stroke-miterlimit="10"/><path d="M368.534,397.863s-2.468,5.56-11.318,4.353c-9.577-1.306-14.837,.878-18.283,8.271-1.99,4.269,1.306,17.086,8.044,21.245,8.994,5.551,10.88,18.895,9.151,25.551" fill="none" stroke="#000" stroke-miterlimit="10"/><polyline id="b" points="356.128 460.765 358.304 476.218 398.353 474.477 399.223 453.582" fill="none"/><path d="M401.182,450.753s-1.243-13.664,4.135-17.848c5.877-4.571,17.321-7.977,23.289-15.236,8.053-9.794-3.482-25.683-10.883-23.507-9.188,2.702-9.092,9.753-6.53,12.842,3.572,4.306,7.116,4.994,14.148,.653,4.227-2.61,12.264-13.524,7.836-24.595-4.788-11.971-17.341-24.744-7.183-30.254,12.842-6.965-4.353-15.453,12.189-25.683" fill="none" stroke="#000" stroke-miterlimit="10"/><polyline id="c" points="447.325 325.384 457.555 337.572 467.132 325.384" fill="none"/><path d="M465.826,318.419s4.135-11.635,11.1-10.715,13.93,18.768,30.689,9.191,25.248,0,24.16,7.618c-1.088,7.618-14.583,11.753-1.306,20.024,13.277,8.271-5.877,18.065-15.018,18.501s-35.26,8.929-29.601,21.115,23.071,18.28,28.948,14.798,10.23-1.088,10.23-1.088" fill="none" stroke="#000" stroke-miterlimit="10"/><polyline id="d" points="528.51 397.863 557.023 399.923 555.717 415.275" fill="none"/><path d="M552.017,419.193s1.228,9.794,6.887,13.059,17.396,3.341,19.014,11.753c2.177,11.318,15.459,10.137,22.201,2.394,5.048-5.798-2.107-13.557-4.69-17.367-3.614-5.331,1.034-12.46,7.301-10.979,.931,.22,2.841,.589,3.918,1.139" fill="none" stroke="#000" stroke-miterlimit="10"/><path id="e" d="M616.225,428.987c.871,6.312,3.7,12.406,3.7,12.406l19.154,1.741,3.482-18.065" fill="none"/><path d="M642.561,420.499s7.4-3.047,7.836-16.324-18.283-12.842-15.671-23.507,7.836-9.794,7.836-16.021c0-10.012-16.324-19.456-16.759-29.468-.694-15.969,26.554-34.172,31.125-24.16s-10.23,22.636,5.006,30.254,20.46-1.524,18.936-6.747-9.794-13.712-15.453-6.312c-5.659,7.4,3.265,21.983,7.618,25.574s14.365,8.162,18.501,1.197,17.63-7.183,17.63-7.183" fill="none" stroke="#000" stroke-miterlimit="10"/><path id="f" d="M716.619,347.347c4.627,1.542,16.965,12.724,16.965,12.724l3.085,22.749" fill="none"/><path d="M736.668,389.182s-15.23,9.447-12.917,23.713,7.326,27.761,18.893,33.352,19.086,7.711,19.086,7.711" fill="none" stroke="#000" stroke-miterlimit="10"/><path id="g" d="M770.213,456.464c1.157,1.735,30.846,3.085,30.846,3.085l5.012-12.724" fill="none"/><path d="M806.071,442.005s-.193-17.758,16.001-21.507,16.806-10.095,16.387-15.123c-.771-9.254-21.232-9.856-16.772-16.194,7.326-10.41,12.338-16.965,18.122-25.062" fill="none" stroke="#000" stroke-miterlimit="10"/><line id="h" x1="844.16" y1="357.651" x2="867.568" y2="345.011" fill="none"/><path d="M872.499,342.969c17.322-4.682,26.186-5.196,26.186-5.196" fill="none" stroke="#000" stroke-miterlimit="10"/><path id="i" d="M905.489,351.331s25.749-10.542,31.835-3.984,4.682,17.736,4.682,17.736" fill="none"/><path d="M921.508,370.785s-12.277,20.972-2.445,29.867,31.628,7.392,37.659,4.785c10.972-4.744,18.353-8.402,23.517-2.374,8.319,9.71-8.801,31.075,2.029,38.943,5.892,4.28,20.008-7.059,21.797-12.59,1.789-5.531,5.612-4.99,7.081-5.302" fill="none" stroke="#000" stroke-miterlimit="10"/></svg>