<svg xmlns="http://www.w3.org/2000/svg" viewBox="0 0 120.775 117.793"><path d="M60.388,0A60.394,60.394,0,0,0,41.3,117.69c3.017.558,4.126-1.311,4.126-2.906,0-1.439-.056-6.2-.082-11.243C28.541,107.194,25,96.416,25,96.416c-2.747-6.979-6.7-8.836-6.7-8.836-5.479-3.748.413-3.671.413-3.671,6.064.426,9.257,6.224,9.257,6.224,5.386,9.231,14.127,6.562,17.573,5.019.542-3.9,2.107-6.567,3.834-8.075-13.413-1.526-27.514-6.7-27.514-29.844a23.371,23.371,0,0,1,6.223-16.208c-.627-1.522-2.694-7.664.585-15.982,0,0,5.071-1.622,16.61,6.191a57.257,57.257,0,0,1,30.244,0c11.526-7.813,16.589-6.191,16.589-6.191,3.288,8.318,1.22,14.46.593,15.982a23.324,23.324,0,0,1,6.215,16.208c0,23.2-14.127,28.3-27.574,29.8,2.166,1.874,4.1,5.549,4.1,11.183,0,8.08-.07,14.583-.07,16.572,0,1.608,1.087,3.49,4.148,2.9A60.4,60.4,0,0,0,60.388,0Z" fill="#191717" fill-rule="evenodd"/><path d="M22.872,86.7c-.133.3-.605.391-1.035.185s-.684-.607-.542-.908.6-.394,1.04-.188.688.61.537.911Z" fill="#191717"/><path d="M25.318,89.432c-.288.266-.851.142-1.233-.28a.921.921,0,0,1-.177-1.254c.3-.267.843-.142,1.238.279s.473.984.172,1.255Z" fill="#191717"/><path d="M27.7,92.909c-.37.258-.975.017-1.349-.52s-.371-1.182.008-1.44.971-.025,1.35.507.369,1.191-.009,1.453Z" fill="#191717"/><path d="M30.961,96.27c-.331.365-1.036.266-1.552-.232a1.162,1.162,0,0,1-.344-1.543c.336-.365,1.045-.262,1.565.232s.683,1.181.331,1.543Z" fill="#191717"/><path d="M35.461,98.221c-.147.472-.825.687-1.509.486s-1.13-.761-.992-1.238.824-.7,1.513-.486,1.13.756.988,1.238Z" fill="#191717"/><path d="M40.4,98.582c.017.5-.563.911-1.281.92s-1.307-.387-1.314-.877.567-.911,1.289-.924,1.306.387,1.306.881Z" fill="#191717"/><path d="M45,97.8c.086.485-.413.984-1.126,1.117s-1.35-.172-1.439-.653c-.087-.5.42-1,1.121-1.126s1.353.168,1.444.662Z" fill="#191717"/></svg>